# xmcd CD database file
#
# Track frame offsets:
#	150
#	16705
#	39660
#	63345
#	79837
#
# Disc length: 1369 seconds
#
# Revision: 1
# Processed by: cddbd v1.5.1PL0 Copyright (c) Steve Scherf et al.
# Submitted via: CDex 1.51
#
DISCID=32055705
DTITLE=極上生徒会 - 恋する奇跡
DYEAR=2005
DGENRE=Anime
TTITLE0=恋する奇跡 /極上生徒会遊撃部＋車両部
TTITLE1=My Friend /佐久間紅美・仙台エリ・植田佳奈・辻あゆみ
TTITLE2=極上プチドラマ「遊撃のニューフェイス」
TTITLE3=恋する奇跡 (instrumental)
TTITLE4=My Friend (instrumental)
EXTD=YEAR: 2005
EXTT0=
EXTT1=
EXTT2=
EXTT3=
EXTT4=
PLAYORDER=
